<mxfile host="app.diagrams.net" agent="Mozilla/5.0 (Macintosh; Intel Mac OS X 10_15_7) AppleWebKit/537.36 (KHTML, like Gecko) Chrome/129.0.0.0 Safari/537.36" version="24.7.17">
  <diagram name="Page-1" id="GYmEmXpbO8GG354cJXXo">
    <mxGraphModel dx="1026" dy="650" grid="1" gridSize="10" guides="1" tooltips="1" connect="1" arrows="1" fold="1" page="1" pageScale="1" pageWidth="850" pageHeight="1100" math="0" shadow="0">
      <root>
        <mxCell id="0" />
        <mxCell id="1" parent="0" />
        <mxCell id="pkndH-VotCJUvtxpTKFt-8" style="edgeStyle=orthogonalEdgeStyle;rounded=0;orthogonalLoop=1;jettySize=auto;html=1;entryX=0;entryY=0.5;entryDx=0;entryDy=0;" edge="1" parent="1" source="pkndH-VotCJUvtxpTKFt-1" target="pkndH-VotCJUvtxpTKFt-2">
          <mxGeometry relative="1" as="geometry" />
        </mxCell>
        <mxCell id="pkndH-VotCJUvtxpTKFt-1" value="Developer" style="shape=umlActor;verticalLabelPosition=bottom;verticalAlign=top;html=1;outlineConnect=0;" vertex="1" parent="1">
          <mxGeometry x="80" y="190" width="30" height="60" as="geometry" />
        </mxCell>
        <mxCell id="pkndH-VotCJUvtxpTKFt-9" style="edgeStyle=orthogonalEdgeStyle;rounded=0;orthogonalLoop=1;jettySize=auto;html=1;entryX=0;entryY=0.5;entryDx=0;entryDy=0;" edge="1" parent="1" source="pkndH-VotCJUvtxpTKFt-2" target="pkndH-VotCJUvtxpTKFt-3">
          <mxGeometry relative="1" as="geometry" />
        </mxCell>
        <mxCell id="pkndH-VotCJUvtxpTKFt-2" value="Gitlab CI" style="rounded=0;whiteSpace=wrap;html=1;" vertex="1" parent="1">
          <mxGeometry x="160" y="200" width="80" height="40" as="geometry" />
        </mxCell>
        <mxCell id="pkndH-VotCJUvtxpTKFt-10" style="edgeStyle=orthogonalEdgeStyle;rounded=0;orthogonalLoop=1;jettySize=auto;html=1;" edge="1" parent="1" source="pkndH-VotCJUvtxpTKFt-3" target="pkndH-VotCJUvtxpTKFt-4">
          <mxGeometry relative="1" as="geometry" />
        </mxCell>
        <mxCell id="pkndH-VotCJUvtxpTKFt-3" value="Build" style="rounded=0;whiteSpace=wrap;html=1;" vertex="1" parent="1">
          <mxGeometry x="280" y="200" width="80" height="40" as="geometry" />
        </mxCell>
        <mxCell id="pkndH-VotCJUvtxpTKFt-11" style="edgeStyle=orthogonalEdgeStyle;rounded=0;orthogonalLoop=1;jettySize=auto;html=1;entryX=0;entryY=0.5;entryDx=0;entryDy=0;" edge="1" parent="1" source="pkndH-VotCJUvtxpTKFt-4" target="pkndH-VotCJUvtxpTKFt-5">
          <mxGeometry relative="1" as="geometry" />
        </mxCell>
        <mxCell id="pkndH-VotCJUvtxpTKFt-4" value="Unit Test" style="rounded=0;whiteSpace=wrap;html=1;" vertex="1" parent="1">
          <mxGeometry x="400" y="200" width="80" height="40" as="geometry" />
        </mxCell>
        <mxCell id="pkndH-VotCJUvtxpTKFt-12" style="edgeStyle=orthogonalEdgeStyle;rounded=0;orthogonalLoop=1;jettySize=auto;html=1;" edge="1" parent="1" source="pkndH-VotCJUvtxpTKFt-5" target="pkndH-VotCJUvtxpTKFt-6">
          <mxGeometry relative="1" as="geometry" />
        </mxCell>
        <mxCell id="pkndH-VotCJUvtxpTKFt-5" value="Sonar" style="rounded=0;whiteSpace=wrap;html=1;" vertex="1" parent="1">
          <mxGeometry x="520" y="200" width="80" height="40" as="geometry" />
        </mxCell>
        <mxCell id="pkndH-VotCJUvtxpTKFt-13" style="edgeStyle=orthogonalEdgeStyle;rounded=0;orthogonalLoop=1;jettySize=auto;html=1;entryX=0.5;entryY=1;entryDx=0;entryDy=0;" edge="1" parent="1" source="pkndH-VotCJUvtxpTKFt-6" target="pkndH-VotCJUvtxpTKFt-7">
          <mxGeometry relative="1" as="geometry" />
        </mxCell>
        <mxCell id="pkndH-VotCJUvtxpTKFt-25" style="edgeStyle=orthogonalEdgeStyle;rounded=0;orthogonalLoop=1;jettySize=auto;html=1;entryX=0;entryY=0.5;entryDx=0;entryDy=0;dashed=1;" edge="1" parent="1" source="pkndH-VotCJUvtxpTKFt-6" target="pkndH-VotCJUvtxpTKFt-14">
          <mxGeometry relative="1" as="geometry" />
        </mxCell>
        <mxCell id="pkndH-VotCJUvtxpTKFt-6" value="Snyk" style="rounded=0;whiteSpace=wrap;html=1;" vertex="1" parent="1">
          <mxGeometry x="640" y="200" width="80" height="40" as="geometry" />
        </mxCell>
        <mxCell id="pkndH-VotCJUvtxpTKFt-7" value="Dev S3" style="rounded=0;whiteSpace=wrap;html=1;" vertex="1" parent="1">
          <mxGeometry x="640" y="119" width="80" height="40" as="geometry" />
        </mxCell>
        <mxCell id="pkndH-VotCJUvtxpTKFt-19" style="edgeStyle=orthogonalEdgeStyle;rounded=0;orthogonalLoop=1;jettySize=auto;html=1;" edge="1" parent="1" source="pkndH-VotCJUvtxpTKFt-14">
          <mxGeometry relative="1" as="geometry">
            <mxPoint x="800" y="160" as="targetPoint" />
          </mxGeometry>
        </mxCell>
        <mxCell id="pkndH-VotCJUvtxpTKFt-26" style="edgeStyle=orthogonalEdgeStyle;rounded=0;orthogonalLoop=1;jettySize=auto;html=1;entryX=0;entryY=0.5;entryDx=0;entryDy=0;dashed=1;" edge="1" parent="1" source="pkndH-VotCJUvtxpTKFt-14" target="pkndH-VotCJUvtxpTKFt-17">
          <mxGeometry relative="1" as="geometry" />
        </mxCell>
        <mxCell id="pkndH-VotCJUvtxpTKFt-14" value="Approve For Staging" style="rounded=0;whiteSpace=wrap;html=1;" vertex="1" parent="1">
          <mxGeometry x="760" y="200" width="80" height="40" as="geometry" />
        </mxCell>
        <mxCell id="pkndH-VotCJUvtxpTKFt-16" value="Staging S3" style="rounded=0;whiteSpace=wrap;html=1;" vertex="1" parent="1">
          <mxGeometry x="760" y="119" width="80" height="40" as="geometry" />
        </mxCell>
        <mxCell id="pkndH-VotCJUvtxpTKFt-20" style="edgeStyle=orthogonalEdgeStyle;rounded=0;orthogonalLoop=1;jettySize=auto;html=1;entryX=0.5;entryY=1;entryDx=0;entryDy=0;" edge="1" parent="1" source="pkndH-VotCJUvtxpTKFt-17" target="pkndH-VotCJUvtxpTKFt-18">
          <mxGeometry relative="1" as="geometry" />
        </mxCell>
        <mxCell id="pkndH-VotCJUvtxpTKFt-17" value="Approve For Production" style="rounded=0;whiteSpace=wrap;html=1;" vertex="1" parent="1">
          <mxGeometry x="880" y="200" width="80" height="40" as="geometry" />
        </mxCell>
        <mxCell id="pkndH-VotCJUvtxpTKFt-18" value="Production S3" style="rounded=0;whiteSpace=wrap;html=1;" vertex="1" parent="1">
          <mxGeometry x="880" y="119" width="80" height="40" as="geometry" />
        </mxCell>
        <mxCell id="pkndH-VotCJUvtxpTKFt-23" style="edgeStyle=orthogonalEdgeStyle;rounded=0;orthogonalLoop=1;jettySize=auto;html=1;entryX=0.5;entryY=1;entryDx=0;entryDy=0;" edge="1" parent="1" source="pkndH-VotCJUvtxpTKFt-21" target="pkndH-VotCJUvtxpTKFt-14">
          <mxGeometry relative="1" as="geometry" />
        </mxCell>
        <mxCell id="pkndH-VotCJUvtxpTKFt-21" value="QA" style="shape=umlActor;verticalLabelPosition=bottom;verticalAlign=top;html=1;outlineConnect=0;" vertex="1" parent="1">
          <mxGeometry x="785" y="290" width="30" height="60" as="geometry" />
        </mxCell>
        <mxCell id="pkndH-VotCJUvtxpTKFt-24" style="edgeStyle=orthogonalEdgeStyle;rounded=0;orthogonalLoop=1;jettySize=auto;html=1;entryX=0.5;entryY=1;entryDx=0;entryDy=0;" edge="1" parent="1" source="pkndH-VotCJUvtxpTKFt-22" target="pkndH-VotCJUvtxpTKFt-17">
          <mxGeometry relative="1" as="geometry" />
        </mxCell>
        <mxCell id="pkndH-VotCJUvtxpTKFt-22" value="SRE" style="shape=umlActor;verticalLabelPosition=bottom;verticalAlign=top;html=1;outlineConnect=0;" vertex="1" parent="1">
          <mxGeometry x="905" y="290" width="30" height="60" as="geometry" />
        </mxCell>
      </root>
    </mxGraphModel>
  </diagram>
</mxfile>
